<svg id="noun-drop-5346071" xmlns="http://www.w3.org/2000/svg" width="14.791" height="23.153" viewBox="0 0 14.791 23.153">
  <path id="Path_13" data-name="Path 13" d="M187.905,0c.676,6.266,7.4,12.292,7.4,16.15a6.82,6.82,0,0,1-2.166,4.952,7.691,7.691,0,0,1-10.459,0,6.821,6.821,0,0,1-2.166-4.952c0-3.858,6.719-9.885,7.4-16.15Zm-4.349,20.608c2.291,1.941,3.054.828.913-.969a5.184,5.184,0,0,1-1.827-3.312,5.054,5.054,0,0,1,.952-3.626,6.291,6.291,0,0,0-.489.456,5.1,5.1,0,0,0-1.407,3.814A5.17,5.17,0,0,0,183.557,20.608Z" transform="translate(-180.51 0)" fill="#b9ecfe"/>
</svg>
