<svg xmlns="http://www.w3.org/2000/svg" width="16" height="16.1" viewBox="0 0 16 16.1">
  <g id="Group_21" data-name="Group 21" transform="translate(-4289 -1829.9)">
    <g id="Rectangle_23" data-name="Rectangle 23" transform="translate(4289 1830)" fill="rgba(255,255,255,0)" stroke="rgba(112,112,112,0)" stroke-width="1">
      <rect width="16" height="16" stroke="none"/>
      <rect x="0.5" y="0.5" width="15" height="15" fill="none"/>
    </g>
    <g id="noun-refresh-1397608" transform="translate(4166.827 1777.958)">
      <path id="Path_15" data-name="Path 15" d="M123.248,62.105a.628.628,0,0,0,.487-.743,6.6,6.6,0,0,1,11.192-5.956l-.952-.141a.628.628,0,1,0-.184,1.243l2.492.369a.645.645,0,0,0,.092.007.628.628,0,0,0,.622-.537l.369-2.492a.628.628,0,1,0-1.243-.184l-.15,1.011A7.859,7.859,0,0,0,122.5,61.618a.628.628,0,0,0,.744.487ZM137.9,58.423a.629.629,0,0,0-1.231.257,6.6,6.6,0,0,1-11.19,5.957l.947.14a.628.628,0,1,0,.184-1.243l-2.493-.369a.628.628,0,0,0-.714.53l-.368,2.492a.628.628,0,0,0,.53.714.638.638,0,0,0,.093.007.628.628,0,0,0,.621-.537l.15-1.015A7.859,7.859,0,0,0,137.9,58.423Z" transform="translate(0 0)" fill="#babac1" stroke="#babac1" stroke-width="0.2"/>
    </g>
  </g>
</svg>
