<svg xmlns="http://www.w3.org/2000/svg" width="16" height="16" viewBox="0 0 16 16">
  <g id="Group_15" data-name="Group 15" transform="translate(-4130 -1795)">
    <g id="Rectangle_18" data-name="Rectangle 18" transform="translate(4130 1795)" fill="rgba(255,255,255,0)" stroke="rgba(112,112,112,0)" stroke-width="1">
      <rect width="16" height="16" stroke="none"/>
      <rect x="0.5" y="0.5" width="15" height="15" fill="none"/>
    </g>
    <g id="noun-settings-1008927" transform="translate(3970.322 1705.329)">
      <path id="Path_9" data-name="Path 9" d="M174.74,101.471l.672-1.636a.857.857,0,0,0-.466-1.118l-.371-.153a1.057,1.057,0,0,1-.006-2.026l.371-.155a.857.857,0,0,0,.461-1.121l-.681-1.632a.857.857,0,0,0-1.12-.461l-.371.155a1.057,1.057,0,0,1-1.436-1.429l.153-.371a.857.857,0,0,0-.467-1.118l-1.635-.672a.856.856,0,0,0-1.118.466l-.153.371a1.057,1.057,0,0,1-2.026.006l-.154-.371a.857.857,0,0,0-1.121-.461l-1.632.681a.856.856,0,0,0-.461,1.121l.155.371a1.057,1.057,0,0,1-1.429,1.435l-.371-.152a.857.857,0,0,0-1.118.467l-.672,1.635a.857.857,0,0,0,.466,1.118l.372.153a1.057,1.057,0,0,1,.005,2.025l-.371.155a.857.857,0,0,0-.461,1.121l.681,1.632a.856.856,0,0,0,1.121.461l.371-.155a1.057,1.057,0,0,1,1.435,1.429l-.152.371a.858.858,0,0,0,.467,1.119l1.635.672a.857.857,0,0,0,1.118-.466l.153-.371a1.057,1.057,0,0,1,2.025-.006l.155.371a.857.857,0,0,0,1.121.461l1.632-.681a.856.856,0,0,0,.461-1.12l-.155-.371a1.057,1.057,0,0,1,1.429-1.436l.371.153a.858.858,0,0,0,1.119-.466Zm-8.414-.857a3.291,3.291,0,1,1,4.294-1.792,3.291,3.291,0,0,1-4.294,1.792Z" fill="#b9b9bf"/>
    </g>
  </g>
</svg>
