<svg xmlns="http://www.w3.org/2000/svg" width="12.894" height="14.606" viewBox="0 0 12.894 14.606">
  <g id="strategies" transform="translate(-323 -238.371)">
    <g id="Path_10" data-name="Path 10" transform="translate(323 238.371)" fill="#babac1" opacity="0.999">
      <path d="M 3.572177886962891 7.993457794189453 L 0.4999973475933075 5.901965141296387 L 0.4999973475933075 0.5000019669532776 L 6.393557548522949 0.5000019669532776 L 6.393557548522949 5.91384220123291 L 3.572177886962891 7.993457794189453 Z" stroke="none"/>
      <path d="M 0.9999971389770508 1.000001907348633 L 0.9999971389770508 5.637495040893555 L 3.560688257217407 7.380773544311523 L 5.893557548522949 5.661234855651855 L 5.893557548522949 1.000001907348633 L 0.9999971389770508 1.000001907348633 M -2.86102294921875e-06 1.9073486328125e-06 L 6.893557548522949 1.9073486328125e-06 L 6.893557548522949 6.166441917419434 L 3.583657264709473 8.606142044067383 L -2.86102294921875e-06 6.166441917419434 L -2.86102294921875e-06 1.9073486328125e-06 Z" stroke="none" fill="#babac1"/>
    </g>
    <g id="Path_11" data-name="Path 11" transform="translate(329 244.371)" fill="#babac1">
      <path d="M 6.393557548522949 8.106200218200684 L 0.4999973475933075 8.106200218200684 L 0.4999973475933075 2.704186916351318 L 3.57217264175415 0.6126891374588013 L 6.393557548522949 2.692317008972168 L 6.393557548522949 8.106200218200684 Z" stroke="none"/>
      <path d="M 5.893557548522949 7.606200695037842 L 5.893557548522949 2.944916248321533 L 3.560688257217407 1.225370645523071 L 0.9999973177909851 2.968656301498413 L 0.9999973177909851 7.606200695037842 L 5.893557548522949 7.606200695037842 M 6.893557548522949 8.606200218200684 L -2.6562499897409e-06 8.606200218200684 L -2.6562499897409e-06 2.43971061706543 L 3.583657264709473 5.859375278305379e-07 L 6.893557548522949 2.43971061706543 L 6.893557548522949 8.606200218200684 Z" stroke="none" fill="#babac1"/>
    </g>
  </g>
</svg>
